<?xml version="1.0" encoding="utf-8"?>
<!-- Generator: Adobe Illustrator 18.0.0, SVG Export Plug-In . SVG Version: 6.00 Build 0)  -->
<!DOCTYPE svg PUBLIC "-//W3C//DTD SVG 1.1//EN" "http://www.w3.org/Graphics/SVG/1.1/DTD/svg11.dtd" [
	<!ENTITY ns_flows "http://ns.adobe.com/Flows/1.0/">
	<!ENTITY ns_extend "http://ns.adobe.com/Extensibility/1.0/">
	<!ENTITY ns_ai "http://ns.adobe.com/AdobeIllustrator/10.0/">
	<!ENTITY ns_graphs "http://ns.adobe.com/Graphs/1.0/">
]>
<svg version="1.1" id="Layer_1" xmlns:x="&ns_extend;" xmlns:i="&ns_ai;" xmlns:graph="&ns_graphs;"
	 xmlns="http://www.w3.org/2000/svg" xmlns:xlink="http://www.w3.org/1999/xlink" xmlns:a="http://ns.adobe.com/AdobeSVGViewerExtensions/3.0/"
	 x="0px" y="0px" viewBox="0 0 1400 980" enable-background="new 0 0 1400 980" xml:space="preserve">
<g>
	<rect fill="#C7E5D1" width="1400" height="980"/>
	<g>
		<path fill="#76B253" d="M186.1,768.4c0,0,238.3-353.4,600.4-33.1L186.1,768.4z"/>
		<path fill="#679E49" d="M503.1,740c0,0,210.9-263.7,467.5,17.3L503.1,740z"/>
		<path fill="#B4D676" d="M1013.1,611.3c-15.7,21.3-24.1,43.5-28.5,63c-3.8-9.3-8.9-18.9-15.8-28.2c-18.1,24.6-24,50.7-25.5,69.5
			h-0.6c0.4-11-0.9-34.5-16.9-56.1c-11.4,15.5-15.4,32-16.5,44.1c-2.9-12-8.2-25.6-17.7-38.6c-9.3,12.6-14.6,25.8-17.5,37.6
			c-9.4-9.8-25.8-16.2-44.5-16.2c-5.5,0-10.8,0.6-15.8,1.6c-6.2-13.7-17.5-22.9-30.5-22.9c-3.5,0-6.9,0.7-10.2,2
			c-3.6-8.6-8.3-17.5-14.7-26.1c-8.9,12-14.6,24.4-18.4,36c-5-15.2-12.5-31.3-24-46.9c-40.8,55.3-32.4,117.1-31.8,121.1
			c-0.7,0.6-1.1,1-1.1,1h59.4h22h92.9h83.4h104v-19.5C1044.8,732.6,1055.3,668.5,1013.1,611.3z"/>
		<path fill="#B4D676" d="M614.3,597.3c-15.7,21.3-24.1,43.5-28.5,63c-3.8-9.3-8.9-18.9-15.8-28.2c-18.1,24.6-24,50.7-25.5,69.5H544
			c0.4-11-0.9-34.5-16.9-56.1c-11.4,15.5-15.4,32-16.5,44.1c-2.9-12-8.2-25.6-17.7-38.6c-9.3,12.6-14.6,25.8-17.5,37.6
			c-9.4-9.8-25.8-16.2-44.5-16.2c-5.5,0-10.8,0.6-15.8,1.6c-6.2-13.7-17.5-22.9-30.5-22.9c-3.5,0-6.9,0.7-10.2,2
			c-3.6-8.6-8.3-17.5-14.7-26.1c-8.9,12-14.6,24.4-18.4,36c-5-15.2-12.5-31.3-24-46.9c-40.8,55.3-32.4,117.1-31.8,121.1
			c-0.7,0.6-1.1,1-1.1,1h59.4h22h92.9h83.4h104v-19.5C646.1,718.6,656.6,654.5,614.3,597.3z"/>
		<path fill="#D7F0FC" d="M534,516.7h70c0.2-0.6,0.3-1.2,0.3-1.9c0-3.9-3.2-7-7-7c0,0-0.1,0-0.1,0c-0.1-5.4-4.5-9.7-9.9-9.7
			c-1.7,0-3.4,0.5-4.8,1.2c-0.2-2.4-2.1-4.2-4.5-4.2c-0.3,0-0.7,0-1,0.1c-1.2-3.9-4.9-6.8-9.2-6.8c-4.6,0-8.5,3.3-9.5,7.6
			c-1.1-0.6-2.4-0.9-3.8-0.9c-4.4,0-8,3.6-8,8c0,0.5,0.1,1.1,0.2,1.6c-0.2,0-0.5-0.1-0.7-0.1c-2.8,0-5,2.3-5,5c0,0.2,0,0.3,0,0.5
			C537.2,510.4,534.4,513.2,534,516.7z"/>
		<path fill="#D7F0FC" d="M1096,580.9h70c0.2-0.6,0.3-1.2,0.3-1.9c0-3.9-3.2-7-7-7c0,0-0.1,0-0.1,0c-0.1-5.4-4.5-9.7-9.9-9.7
			c-1.7,0-3.4,0.5-4.8,1.2c-0.2-2.4-2.1-4.2-4.6-4.2c-0.3,0-0.7,0-1,0.1c-1.2-3.9-4.9-6.8-9.2-6.8c-4.6,0-8.5,3.3-9.5,7.6
			c-1.1-0.6-2.4-0.9-3.8-0.9c-4.4,0-8,3.6-8,8c0,0.5,0.1,1.1,0.2,1.6c-0.2,0-0.5-0.1-0.7-0.1c-2.8,0-5,2.3-5,5c0,0.2,0,0.3,0,0.5
			C1099.2,574.6,1096.4,577.3,1096,580.9z"/>
		<path fill="#D7F0FC" d="M303.5,418.6h119.9c0.3-1,0.5-2.1,0.5-3.3c0-6.7-5.4-12.1-12.1-12.1c0,0-0.1,0-0.1,0
			c-0.2-9.2-7.7-16.6-17-16.6c-3,0-5.8,0.8-8.2,2.1c-0.3-4.1-3.7-7.3-7.8-7.3c-0.6,0-1.2,0.1-1.7,0.2c-2.1-6.7-8.4-11.6-15.8-11.6
			c-8,0-14.6,5.6-16.2,13.1c-1.9-1-4.1-1.6-6.5-1.6c-7.6,0-13.7,6.2-13.7,13.7c0,0.9,0.1,1.8,0.3,2.7c-0.4-0.1-0.8-0.1-1.3-0.1
			c-4.8,0-8.6,3.9-8.6,8.6c0,0.3,0,0.6,0,0.9C309,407.9,304.1,412.6,303.5,418.6z"/>
		<path fill="#6D6F70" d="M404.6,469.8c0,0,1.7-6.3,7.7-4.4C412.3,465.4,413.4,472,404.6,469.8z"/>
		<path fill="#6D6F70" d="M338.3,497.3c0,0-4.5,6.7,6.7,12.2C345,509.5,348.3,504,338.3,497.3z"/>
		<g>
			<path fill="#6EAE44" d="M391.9,574.7c-1.8-5.4-4.1-10.7-3.3-16.7c1.1-8.5,3.2-17.2,3-25.8c-0.4-16.2-11.5-31.8-27.7-36.8
				c-16.1-5-36.2,1.9-44.2,16.4c-5.9,10.6-6,23.8-5.5,35.2c0.2,5.3,0.8,10.8-1.9,15.5c-5.2,9.3-10.7,17.6-6.2,28.2
				c0.4,0.9,0.8,1.8,1.3,2.6c8.2,15.9,23.8,25.9,33.2,30.7c1.7,1.2,3.5,2.2,5.5,2.9c0.7,0.3,1.5,0.5,2.2,0.6c0,0,0.1,0,0.1,0
				c2.8,0.6,5.8,0.4,8.7-0.3c11-2.8,22.3-13.2,27.8-20.6c3.8-5.1,6.8-11.2,8.5-17.2C394.8,584.3,393.5,579.5,391.9,574.7z"/>
			<path fill="#98B93C" d="M385.8,578c-1.6-5-3.5-10-2.8-15.5c0.9-8,2.7-16.1,2.5-24.1c-0.4-15.1-9.9-29.7-23.7-34.4
				c-1.5-0.5-3-0.9-4.5-1.1l-3.3,5.9l-2.1-6.3c-11.3,0.2-22.7,6.4-28,16.8c-5,9.9-5.1,22.2-4.7,32.9c0.2,4.9,0.7,10-1.6,14.5
				c-4.4,8.7-9.2,16.4-5.3,26.3c0.3,0.8,0.7,1.7,1.1,2.4c7,14.8,20.4,24.2,28.5,28.7c1.5,1.1,3,2,4.7,2.7c0.6,0.3,1.3,0.4,1.9,0.6
				c0,0,0.1,0,0.1,0c2.4,0.5,4.9,0.4,7.5-0.3c9.4-2.6,19.1-12.3,23.8-19.2c3.3-4.8,5.8-10.4,7.3-16.1
				C388.3,586.9,387.2,582.5,385.8,578z"/>
			<polygon fill="#725032" points="367.2,596.6 359.9,601.2 365.9,585 355.6,603.5 355.6,555.6 359.1,545 355.6,550.8 355.5,528.8 
				354.2,553.1 354.2,553.1 352.6,580.4 342.2,564.7 347.8,578.7 339.1,576.7 348.8,581.1 352.1,589.4 349.7,630.8 349.3,637.9 
				346.5,714 355.8,714 355.7,612.8 358.4,605.4 			"/>
			<path fill="#6DA943" d="M367.2,534.7c0,0,1.2-4.5,5.5-3.1C372.7,531.6,373.4,536.3,367.2,534.7z"/>
			<path fill="#6DA943" d="M333.3,597.5c0,0,1.2-4.5,5.5-3.1C338.8,594.4,339.5,599.1,333.3,597.5z"/>
			<path fill="#6DA943" d="M334.6,544.5c0,0-2.1,3.1,3.1,5.7C337.7,550.2,339.2,547.6,334.6,544.5z"/>
			<path fill="#6DA943" d="M371.3,596.1c0,0-2.1,3.1,3.1,5.7C374.4,601.8,375.9,599.2,371.3,596.1z"/>
			<path fill="#6DA943" d="M374.5,562.3c0,0-3.7-0.4-3.7,5.4C370.8,567.7,373.9,567.9,374.5,562.3z"/>
			<path fill="#6DA943" d="M343.1,518.5c0,0-3.9,1.3,0,5.9C343.1,524.4,346,521.1,343.1,518.5z"/>
			<path fill="#6DA943" d="M361.3,576.8c0,0,0,5.5,7,4.4C368.4,581.2,367.1,575.5,361.3,576.8z"/>
			<g>
				<g>
					<g>
						<polygon fill="#57595A" points="355.6,550.8 355.5,528.8 354.2,553.1 354.2,553.1 354,556.3 356.1,554.1 359.1,545 						"/>
					</g>
					<g>
						<polygon fill="#57595A" points="342.2,564.7 343.3,567.3 343.7,566.9 						"/>
					</g>
				</g>
			</g>
		</g>
		<g>
			<path fill="#6EAE44" d="M1112.2,554.5c-2.7-8-6.1-16.1-5-25c1.6-12.8,4.8-25.9,4.5-38.8c-0.7-24.3-17.3-47.8-41.5-55.3
				c-24.2-7.5-54.3,2.9-66.5,24.7c-8.8,15.9-9,35.8-8.3,52.9c0.3,7.9,1.1,16.2-2.8,23.3c-7.8,13.9-16.1,26.4-9.4,42.3
				c0.6,1.4,1.2,2.7,1.9,3.9c12.3,23.9,35.8,38.9,49.9,46.2c2.6,1.7,5.3,3.3,8.3,4.4c1.1,0.4,2.2,0.7,3.3,0.9c0,0,0.1,0,0.1,0
				c4.2,0.9,8.7,0.6,13.1-0.5c16.6-4.2,33.5-19.9,41.8-30.9c5.8-7.7,10.1-16.8,12.7-25.9C1116.6,568.9,1114.6,561.7,1112.2,554.5z"
				/>
			<path fill="#98B93C" d="M1103,559.5c-2.3-7.5-5.2-15-4.3-23.4c1.4-12,4.1-24.1,3.8-36.2c-0.6-22.7-14.8-44.6-35.6-51.6
				c-2.2-0.8-4.5-1.3-6.8-1.7l-5,8.9l-3.1-9.5c-16.9,0.3-34.1,9.6-42.1,25.3c-7.6,14.8-7.7,33.4-7.1,49.4c0.3,7.4,1,15.1-2.4,21.8
				c-6.6,13-13.8,24.7-8,39.5c0.5,1.3,1,2.5,1.6,3.7c10.5,22.3,30.6,36.3,42.8,43.1c2.2,1.6,4.6,3,7.1,4.1c0.9,0.4,1.9,0.7,2.8,0.9
				c0,0,0.1,0,0.1,0c3.6,0.8,7.4,0.6,11.3-0.5c14.2-3.9,28.7-18.5,35.8-28.8c5-7.2,8.7-15.6,10.9-24.1
				C1106.8,572.9,1105.1,566.2,1103,559.5z"/>
			<polygon fill="#725032" points="1075,587.4 1064.1,594.3 1073.1,570 1057.7,597.9 1057.6,525.8 1062.9,510 1057.6,518.6 
				1057.5,485.6 1055.4,522 1055.4,522 1053.1,563.1 1037.5,539.5 1045.9,560.5 1032.9,557.5 1047.4,564.1 1052.3,576.6 
				1048.8,638.8 1048.1,649.5 1043.9,763.9 1057.9,763.9 1057.7,611.7 1061.8,600.7 			"/>
			<path fill="#6DA943" d="M1075,494.4c0,0,1.8-6.7,8.2-4.7C1083.3,489.7,1084.3,496.8,1075,494.4z"/>
			<path fill="#6DA943" d="M1024.1,588.9c0,0,1.8-6.7,8.2-4.7C1032.3,584.2,1033.4,591.2,1024.1,588.9z"/>
			<path fill="#6DA943" d="M1026,509.2c0,0-3.1,4.7,4.7,8.6C1030.7,517.8,1033.1,513.9,1026,509.2z"/>
			<path fill="#6DA943" d="M1081.2,586.6c0,0-3.1,4.7,4.7,8.6C1085.8,595.2,1088.2,591.3,1081.2,586.6z"/>
			<path fill="#6DA943" d="M1086.1,535.9c0,0-5.6-0.6-5.5,8.1C1080.5,544,1085.1,544.3,1086.1,535.9z"/>
			<path fill="#6DA943" d="M1038.9,470.1c0,0-5.9,2,0,8.8C1038.9,478.9,1043.2,474,1038.9,470.1z"/>
			<path fill="#6DA943" d="M1066.3,557.6c0,0,0,8.2,10.5,6.6C1076.8,564.3,1074.9,555.7,1066.3,557.6z"/>
		</g>
		<ellipse fill="#8DC73F" cx="700" cy="787.3" rx="581.1" ry="63.4"/>
		<g>
			<g>
				<g>
					<path fill="#B8D654" d="M858.2,761.8h-21c-3.8,0-6.8,2.5-6.8,5.7l0,0c0,3.1,3.1,5.7,6.8,5.7h21c3.8,0,6.8-2.5,6.8-5.7l0,0
						C865,764.4,861.9,761.8,858.2,761.8z"/>
				</g>
				<g>
					<path fill="#B8D654" d="M890.8,761.8h-7.1c-3.8,0-6.8,2.5-6.8,5.7l0,0c0,3.1,3.1,5.7,6.8,5.7h7.1c3.8,0,6.8-2.5,6.8-5.7l0,0
						C897.7,764.4,894.6,761.8,890.8,761.8z"/>
				</g>
			</g>
		</g>
		<ellipse fill="#83C55C" cx="606.5" cy="816.9" rx="6" ry="2.6"/>
		<ellipse fill="#83C55C" cx="593.1" cy="806.9" rx="3.9" ry="1.4"/>
		<path opacity="0.8" fill="#B8D654"  a:adobe-blending-mode="multiply" d="M1001.2,759.3h-18.6c0.5-0.8,0.8-1.8,0.8-2.8
			c0-2.5-1.5-4.5-3.4-4.5h-79.5c-1.9,0-3.4,2-3.4,4.5c0,2.5,1.5,4.5,3.4,4.5H919c-0.5,0.8-0.8,1.8-0.8,2.8c0,2.5,1.5,4.5,3.4,4.5
			h79.5c1.9,0,3.4-2,3.4-4.5C1004.6,761.4,1003.1,759.3,1001.2,759.3z"/>
		<path opacity="0.8" fill="#B8D654"  a:adobe-blending-mode="multiply" d="M308.5,787.8H290c0.5-0.8,0.8-1.8,0.8-2.8
			c0-2.5-1.5-4.5-3.4-4.5h-79.5c-1.9,0-3.4,2-3.4,4.5c0,2.5,1.5,4.5,3.4,4.5h18.6c-0.5,0.8-0.8,1.8-0.8,2.8c0,2.5,1.5,4.5,3.4,4.5
			h79.5c1.9,0,3.4-2,3.4-4.5C312,789.9,310.4,787.8,308.5,787.8z"/>
		<circle fill="#EFEA49" cx="483.9" cy="193" r="63.6"/>
		<path fill="#D7F0FC" d="M756.9,210.4h136.4c0.3-1.2,0.5-2.4,0.5-3.7c0-7.6-6.2-13.7-13.7-13.7c-0.1,0-0.1,0-0.2,0
			c-0.2-10.5-8.8-18.9-19.3-18.9c-3.4,0-6.6,0.9-9.4,2.4c-0.3-4.6-4.2-8.3-8.9-8.3c-0.7,0-1.3,0.1-1.9,0.2
			c-2.4-7.7-9.6-13.3-18-13.3c-9.1,0-16.6,6.4-18.5,14.9c-2.2-1.2-4.7-1.9-7.4-1.9c-8.6,0-15.6,7-15.6,15.6c0,1.1,0.1,2.1,0.3,3.1
			c-0.5-0.1-1-0.1-1.5-0.1c-5.4,0-9.8,4.4-9.8,9.8c0,0.3,0,0.7,0.1,1C763.1,198.1,757.5,203.5,756.9,210.4z"/>
		<path fill="#D7F0FC" d="M370.8,258.1h150.3c-1-4.9-5.3-8.7-10.6-8.7c-0.8,0-1.6,0.1-2.4,0.3c-1.3-8.1-8.4-14.3-16.9-14.3
			c-1.3,0-2.6,0.2-3.8,0.4c-1.3-9.3-9.2-16.4-18.8-16.4c-6.4,0-12,3.2-15.4,8c-1.6-1-3.5-1.5-5.6-1.5c-2.5,0-4.8,0.9-6.6,2.3
			c-1.8-4.6-6.3-7.8-11.5-7.8c-2.3,0-4.4,0.6-6.3,1.7c-3-6.6-9.6-11.1-17.3-11.1c-10.6,0-19.1,8.6-19.1,19.1c0,1.9,0.3,3.7,0.8,5.4
			c-7.4,0.7-13.1,7-13.1,14.5c0,1.2,0.2,2.4,0.5,3.6C373.1,254.6,371.7,256.2,370.8,258.1z"/>
		<path fill="#D7F0FC" d="M859.9,442.9h119.9c0.3-1,0.5-2.1,0.5-3.3c0-6.7-5.4-12.1-12.1-12.1c0,0-0.1,0-0.1,0
			c-0.2-9.2-7.7-16.6-17-16.6c-3,0-5.8,0.8-8.2,2.1c-0.3-4.1-3.7-7.3-7.8-7.3c-0.6,0-1.2,0.1-1.7,0.2c-2.1-6.7-8.4-11.6-15.8-11.6
			c-8,0-14.6,5.6-16.2,13.1c-1.9-1-4.1-1.6-6.5-1.6c-7.6,0-13.7,6.2-13.7,13.7c0,0.9,0.1,1.8,0.3,2.7c-0.4-0.1-0.8-0.1-1.3-0.1
			c-4.8,0-8.6,3.9-8.6,8.6c0,0.3,0,0.6,0,0.9C865.4,432.2,860.5,436.9,859.9,442.9z"/>
		<path fill="#6D6F70" d="M360.7,500.7c0,0-5.4,4.8,2,10C362.6,510.8,366.1,504,360.7,500.7z"/>
		<path fill="#6D6F70" d="M413.5,467.2c0,0-6.1-3.8-9.1,4.7C404.4,471.9,411.9,473.4,413.5,467.2z"/>
		<g>
			<path fill="#6EAE44" d="M329.5,546.8c-2.7-8-6.1-16.1-5-25c1.6-12.8,4.8-25.9,4.5-38.8c-0.7-24.3-17.3-47.8-41.5-55.3
				c-24.2-7.5-54.3,2.9-66.5,24.7c-8.8,15.9-9,35.8-8.3,52.9c0.3,7.9,1.1,16.2-2.8,23.3c-7.8,13.9-16.1,26.4-9.4,42.3
				c0.6,1.4,1.2,2.7,1.9,3.9c12.3,23.9,35.8,38.9,49.9,46.2c2.6,1.7,5.3,3.3,8.3,4.4c1.1,0.4,2.2,0.7,3.3,0.9c0,0,0.1,0,0.1,0
				c4.2,0.9,8.7,0.6,13.1-0.5c16.6-4.2,33.5-19.9,41.8-30.9c5.8-7.7,10.1-16.8,12.7-25.9C333.9,561.2,331.9,554,329.5,546.8z"/>
			<path fill="#98B93C" d="M320.3,551.7c-2.3-7.5-5.2-15-4.3-23.4c1.4-12,4.1-24.1,3.8-36.2c-0.6-22.7-14.8-44.6-35.6-51.6
				c-2.2-0.8-4.5-1.3-6.8-1.7l-5,8.9l-3.1-9.5c-16.9,0.3-34.1,9.6-42.1,25.3c-7.6,14.8-7.7,33.4-7.1,49.4c0.3,7.4,1,15.1-2.4,21.8
				c-6.6,13-13.8,24.7-8,39.5c0.5,1.3,1,2.5,1.6,3.7c10.5,22.3,30.6,36.3,42.8,43.1c2.2,1.6,4.6,3,7.1,4.1c0.9,0.4,1.9,0.7,2.8,0.9
				c0,0,0.1,0,0.1,0c3.6,0.8,7.4,0.6,11.3-0.5c14.2-3.9,28.7-18.5,35.8-28.8c5-7.2,8.7-15.6,10.9-24.1
				C324.1,565.1,322.4,558.4,320.3,551.7z"/>
			<polygon fill="#725032" points="292.3,579.7 281.5,586.5 290.4,562.2 275,590.1 274.9,518.1 280.3,502.2 274.9,510.8 
				274.9,477.8 272.8,514.2 272.8,514.2 270.4,555.3 254.8,531.7 263.2,552.7 250.2,549.7 264.7,556.4 269.6,568.8 266.1,631 
				265.5,641.7 261.2,756.1 275.2,756.1 275,604 279.1,592.9 			"/>
			<path fill="#6DA943" d="M292.3,486.7c0,0,1.8-6.7,8.2-4.7C300.6,482,301.7,489,292.3,486.7z"/>
			<path fill="#6DA943" d="M241.4,581.1c0,0,1.8-6.7,8.2-4.7C249.7,576.4,250.8,583.4,241.4,581.1z"/>
			<path fill="#6DA943" d="M243.3,501.4c0,0-3.1,4.7,4.7,8.6C248,510,250.4,506.1,243.3,501.4z"/>
			<path fill="#6DA943" d="M298.5,578.9c0,0-3.1,4.7,4.7,8.6C303.2,587.5,305.5,583.6,298.5,578.9z"/>
			<path fill="#6DA943" d="M303.4,528.1c0,0-5.6-0.6-5.5,8.1C297.9,536.2,302.4,536.5,303.4,528.1z"/>
			<path fill="#6DA943" d="M256.2,462.3c0,0-5.9,2,0,8.8C256.2,471.1,260.5,466.2,256.2,462.3z"/>
			<path fill="#6DA943" d="M283.6,549.9c0,0,0,8.2,10.5,6.6C294.1,556.5,292.2,547.9,283.6,549.9z"/>
			<g>
				<g>
					<g>
						<polygon fill="#57595A" points="274.9,510.8 274.9,477.8 272.8,514.2 272.8,514.2 272.5,519 275.7,515.8 280.3,502.2 						
							"/>
					</g>
					<g>
						<polygon fill="#57595A" points="254.8,531.7 256.4,535.6 257,535 						"/>
					</g>
				</g>
			</g>
		</g>
		<path fill="#73AE51" d="M328.1,737.3c-0.7,0-1.5,0-2.2,0.1c0-0.4,0.1-0.9,0.1-1.3c0.2-9.5-7.2-17.4-16.7-17.6c-0.1,0-0.2,0-0.3,0
			c0.2-1,0.3-1.9,0.3-2.9c0.3-11.7-9-21.5-20.7-21.8c-5.1-0.1-9.9,1.6-13.7,4.5c-3.1-4.8-8.5-8-14.7-8.2c-10-0.3-18.3,7.6-18.6,17.6
			c0,0,0,0,0,0c-0.1,0-0.1,0-0.2,0c-3.8-0.1-7.2,2.2-8.6,5.5c-1.7-0.8-3.5-1.2-5.4-1.2c-7.8-0.2-14.3,5.9-14.5,13.7
			c0,1.4,0.1,2.7,0.5,4c-4.9,3-8.2,8.4-8.3,14.5c-0.3,9.8,7.5,17.9,17.2,18.1c4.7,0.1,8.9-1.6,12.2-4.4c4.4,3.6,10,5.9,16.2,6
			c5.5,0.1,10.6-1.4,14.9-4.1c4.4,2.8,10.3,4.6,16.8,4.8c6.2,0.2,11.9-1.2,16.3-3.5c2.6,2.1,5.8,3.3,9.3,3.4c4.9,0.1,9.3-2,12.2-5.4
			c2,1.6,4.5,2.6,7.3,2.6c6.7,0.2,12.4-5.1,12.5-11.9C340.1,743.1,334.8,737.5,328.1,737.3z"/>
		<path fill="#6DA943" d="M416.9,725.8c-3,0.2-5.8,0.9-8.4,1.9c-4.8-15.1-19.5-25.5-36-24.1c-5.1,0.4-9.9,2-14.1,4.3
			c-7.8-7.5-18.6-11.7-30.2-10.7c-17.2,1.4-30.8,13.8-34.6,29.8c-1.1-0.1-2.2-0.1-3.4,0c-12.5,1-21.7,12-20.7,24.5
			c1,12.5,12,21.7,24.5,20.7c5.1-0.4,9.7-2.5,13.2-5.7c7.5,5.9,17.1,9.2,27.4,8.3c7.8-0.7,14.9-3.6,20.6-8.1c6.5,4.6,14.5,7,23,6.3
			c8.2-0.7,15.4-4.1,20.9-9.3c5.3,4.7,13,7.4,21.4,6.7c14.6-1.2,25.6-12.1,24.5-24.4C444.1,733.6,431.4,724.6,416.9,725.8z"/>
		<path fill="#6DA943" d="M1122.9,720.1c-2.1,0.2-4.1,0.6-6,1.3c-3.4-10.8-13.9-18.2-25.7-17.2c-3.7,0.3-7.1,1.4-10.1,3.1
			c-5.5-5.3-13.2-8.3-21.5-7.6c-12.2,1-21.9,9.9-24.6,21.2c-0.8,0-1.6,0-2.4,0c-8.9,0.7-15.5,8.5-14.7,17.4s8.5,15.5,17.4,14.7
			c3.6-0.3,6.9-1.8,9.4-4.1c5.3,4.2,12.2,6.5,19.5,5.9c5.6-0.5,10.6-2.5,14.7-5.7c4.6,3.3,10.3,5,16.4,4.5c5.8-0.5,11-2.9,14.9-6.6
			c3.7,3.4,9.3,5.3,15.2,4.8c10.4-0.9,18.2-8.6,17.5-17.4C1142.3,725.7,1133.3,719.3,1122.9,720.1z"/>
		<path opacity="0.47" fill="#8DC73F"  a:adobe-blending-mode="multiply" d="M770.7,796.2H565.3c-5.7,0-10.3,4.6-10.3,10.3
			c0,5.7,4.6,10.3,10.3,10.3h205.4c5.7,0,10.3-4.6,10.3-10.3C781,800.8,776.4,796.2,770.7,796.2z"/>
		<path opacity="0.47" fill="#8DC73F"  a:adobe-blending-mode="multiply" d="M498.8,790.6H365.9c-3.7,0-6.7,3-6.7,6.7
			c0,3.7,3,6.7,6.7,6.7h132.9c3.7,0,6.7-3,6.7-6.7C505.5,793.6,502.5,790.6,498.8,790.6z"/>
		<path opacity="0.47" fill="#8DC73F"  a:adobe-blending-mode="multiply" d="M1046.7,800.2H913.8c-3.7,0-6.7,3-6.7,6.7
			s3,6.7,6.7,6.7h132.9c3.7,0,6.7-3,6.7-6.7S1050.4,800.2,1046.7,800.2z"/>
		<g>
			<path fill="#F05343" d="M1012.2,604c-0.8,0-1.5-0.4-2-1.1c-37.3-56.2-183-94.2-226.6-89.1c-43,5-83.7-16.1-85.4-17
				c-1.2-0.6-1.6-2-1-3.2c0.6-1.2,2-1.6,3.2-1c0.4,0.2,41.2,21.3,82.7,16.5c22.9-2.7,72.1,6.5,117.1,21.8
				c32.7,11.1,90.9,34.8,113.9,69.4c0.7,1.1,0.4,2.5-0.7,3.3C1013.1,603.9,1012.6,604,1012.2,604z"/>
			<path fill="#D21D53" d="M706.9,247.5c0,0,3.4-11,20.9-14.6c17.5-3.7,31.1-2.4,31.1-2.4s-29.8-14.9-46.3-14.9
				c-16.5,0-19.3,1.8-19.9,8.6C692.3,231,706.9,247.5,706.9,247.5z"/>
			<path fill="#B61647" d="M706.7,241.5c0,0,4.4-6.5,2.1-10.7s-14.6-5-14.1-9.4s9.1-5.5,9.1-5.5s-11.5-1.6-14.9,7.6
				c-3.4,9.1,8.4,16.7,8.4,16.7L706.7,241.5z"/>
			<path fill="#D21D53" d="M653.1,224.2l-1.8,53.3c0,0,23-12,39.5-9.4c16.5,2.6,21.7-7.3,20.9-19.3c-0.8-12-1.3-13.3-2.1-16.7
				s-11.5,2.1-26.9-2.4C667.2,225.3,653.1,224.2,653.1,224.2z"/>
			<path fill="#5D3D5D" d="M658.8,786.7c0,2-1.6,3.6-3.6,3.6H651c-2,0-3.6-1.6-3.6-3.6V227.1c0-2,1.6-3.6,3.6-3.6h4.2
				c2,0,3.6,1.6,3.6,3.6V786.7z"/>
			<path fill="#F05343" d="M805.5,702.4c-1.3,0-2.3-1-2.4-2.3c-0.6-29-5.5-70.7-25.4-104.8c-18.4-31.5-44.9-48.5-79-50.5
				c-37.2-2.5-55.5-27.8-56.3-28.9c-0.8-1.1-0.5-2.5,0.6-3.3c1.1-0.8,2.5-0.5,3.3,0.6l0,0c0.2,0.2,17.8,24.5,52.7,26.9
				c35.7,2.1,63.6,19.9,82.8,52.9c20.4,35,25.4,77.6,26,107.1C807.9,701.3,806.8,702.3,805.5,702.4
				C805.5,702.4,805.5,702.4,805.5,702.4z"/>
			<path fill="#5D3D5D" d="M651.8,514.6c-26,0-52.3-5.2-52.3-15.2c0-9.9,26.3-15.2,52.3-15.2c26,0,52.3,5.2,52.3,15.2
				C704.1,509.4,677.8,514.6,651.8,514.6z M651.8,489c-31.2,0-47.5,6.8-47.5,10.4s16.3,10.4,47.5,10.4c31.2,0,47.5-6.8,47.5-10.4
				S683,489,651.8,489z"/>
			<g>
				<circle fill="#D21D53" cx="653.1" cy="218.3" r="13.5"/>
				
					<ellipse transform="matrix(0.7983 0.6023 -0.6023 0.7983 260.4072 -346.6468)" fill="#FFE8B7" cx="647.7" cy="215.4" rx="3.5" ry="5.2"/>
				<path fill="#B61647" d="M662.7,208.9c0.6,1.5,1,3.2,1,5c0,7.4-6,13.5-13.5,13.5c-3.8,0-7.2-1.6-9.6-4c2,5,6.8,8.5,12.5,8.5
					c7.4,0,13.5-6,13.5-13.5C666.5,214.7,665.1,211.4,662.7,208.9z"/>
			</g>
			<path fill="#F05343" d="M511.9,614.8c-1.1,0-2.1-0.8-2.3-2c-0.1-0.4-6.4-44.3,33.5-62.9c19.5-15.8,51.2-43.9,56.5-49.7
				c0.9-1,2.4-1,3.3-0.2c1,0.9,1,2.4,0.2,3.3c-6,6.7-38.6,35.4-57.3,50.4c-0.2,0.1-0.3,0.2-0.5,0.3c-36.9,17-31.3,56.3-31.1,58
				c0.2,1.3-0.7,2.5-2,2.7C512.1,614.8,512,614.8,511.9,614.8z"/>
			<g>
				<path fill="#5D3D5D" d="M453.8,793.7c0,1.9-0.8,2.1-0.8,3.3c0,1.2,1,2.5,11.6,2.3c10.5-0.2,24.4-0.2,27.7-0.2c3.3,0,3.5-6,3.5-6
					L453.8,793.7z"/>
				<path fill="#F05343" d="M455.3,778.6c0,0-3.7,2.3-3.7,5.3c0,3-0.9,7.4,1.2,10.8c2.2,3.4,13.9,1.9,17.7,1.9
					c3.7,0,18.3,1.2,22.9-0.9c4.6-2.2,1.9-6.6,1.9-6.6s-11.1-2-16.1-2.6c-5-0.6-8.4-7.1-12.4-7.7C462.7,778,455.3,778.6,455.3,778.6
					z"/>
				<path fill="#F4D8AD" d="M457.5,709.1c0,0,8.4,69.7,8.4,71.7c0,2.1-5.6,7-9.6,2.2c-5.4-6.3-19-66.1-19-66.1L457.5,709.1z"/>
				<path fill="#5D3D5D" d="M357.3,712.5l-0.2-2.8c0,0-2.8-2.9-5-3.1c-2.2-0.2-7.9,0.3-8.2,7.7c-0.3,7.4-0.2,12.4-0.6,16.1
					c-0.5,3.7,0.8,10.5,6.7,11.1c5.9,0.6,7-3.1,7-3.1L357.3,712.5z"/>
				<path fill="#F05343" d="M359,713.4c0,0-1.2-4.7-5-5.4c-3.7-0.6-7.4,0.2-8.7,5.6c-1.2,5.4,0.6,13.6-0.4,16.7
					c-1,3.1-0.8,6,0.8,7.6c1.7,1.7,3.1,4.1,6.6,3.9c3.5-0.2,5.6-1,4.7-4.3c-0.8-3.3-1.2-10.3,1.2-13.6
					C360.9,720.6,359,713.4,359,713.4z"/>
				<path fill="#F4D8AD" d="M414.1,728.5c0,0-23.9,19.4-35.9,18.6c-12-0.8-29.3-29.7-29.3-32.6c0-2.9,5.8-4.1,9.1-1.2
					c3.3,2.9,19,14.7,19,14.7l12.8-7.6L414.1,728.5z"/>
				<path fill="#78CAB5" d="M393.1,683.5l-29.3,38c0,0,24.4,13.6,65.6,14.5c41.3,0.8,47.1-12.8,47.1-12.8L455,680.2L393.1,683.5z"/>
				<path fill="#F05343" d="M410.8,590.6c0,0-8.7,2.5-17.3,7.4c-8.7,5-16.5,39.2-15.7,42.5c0.8,3.3,8.7,5,8.7,5l11.6,0.8l-7.8,41.3
					c0,0,19.4,4.1,38,4.1c18.6,0,28.1-7.4,28.1-7.4L455,624c0,0,13.6,3.3,21.5,2.5c7.8-0.8,8.3-9.1,8.3-9.1s-3.7-7.8-6.6-10.7
					c-2.9-2.9-30.6-13.6-35.5-16.5C437.7,587.3,420.3,585.6,410.8,590.6z"/>
				<path fill="#F4D8AD" d="M513.2,574c0,0-38.4,31.8-42.1,34.7c-3.7,2.9-0.8,13.2,8.3,11.6c9.1-1.6,42.1-42.9,42.1-42.9L513.2,574z
					"/>
				<path fill="#613B23" d="M407.1,515.7c0,0-0.3-0.2-0.8-0.5c-2.3-1.3-9.2-4.3-18.8-0.8c-11.8,4.4-25.9,26.8-16.8,48.3
					c9,21.5,5.9,24.9,5.9,24.9s7.5-4.7,8.1-13.1c0.6-8.4-3.4-17.5-3.4-17.5s5.3,5,5.3,8.7c0,0,0-3.7-1.9-13.4
					c-1.9-9.7,6.5-35.8,16.2-27.4C410.5,533.5,407.1,515.7,407.1,515.7z"/>
				<path fill="#F69321" d="M411.8,516.7c0,0-2.2-2.8-6.5-2.8c-4.4,0-10,7.5-7.8,10.6C399.6,527.6,411.8,516.7,411.8,516.7z"/>
				<path fill="#613B23" d="M453.5,563.1c0,0,4.7-6.1,4.7-21.5c0-15.4-16.8-36.9-45.8-27.6c-29,9.4-28.5,37.9-17.3,56.6
					c11.2,18.7,11.2,18.7,11.2,18.7L453.5,563.1z"/>
				<path fill="#F4D8AD" d="M407.7,535.1c0,0,15.9,17.3,40.2,11.7l0.9-4.2l5.1,4.2c0,0,5.6,52.4-22.9,54.7
					c-28.5,2.3-29.9-25.2-29.9-25.2s-7.5,2.3-9.4-4.7c-1.9-7,5.1-15,10.3-8.4l4.7,9.4L407.7,535.1z"/>
				<path fill="#613B23" d="M431.6,569.8c-0.3,0-0.6-0.2-0.7-0.5c0,0-1.4-4.4-4.9-4.4c-3.5,0-5.5,4.3-5.5,4.4
					c-0.2,0.4-0.6,0.6-1,0.4c-0.4-0.2-0.6-0.6-0.4-1c0.1-0.2,2.4-5.3,6.9-5.3c4.6,0,6.3,5.3,6.4,5.5c0.1,0.4-0.1,0.9-0.5,1
					C431.7,569.8,431.6,569.8,431.6,569.8z"/>
				<path fill="#613B23" d="M451.7,570.1C451.7,570.1,451.6,570.1,451.7,570.1c-0.5,0-0.8-0.4-0.8-0.8c0-0.2,0.2-4.2-2.7-4.5
					c-3.2-0.2-5.6,4.4-5.6,4.4c-0.2,0.4-0.7,0.5-1.1,0.3c-0.4-0.2-0.5-0.7-0.3-1.1c0.1-0.2,2.9-5.6,7.2-5.3c3.6,0.3,4.3,4.1,4.1,6.1
					C452.4,569.8,452.1,570.1,451.7,570.1z"/>
				<path fill="#613B23" d="M450.9,559.4c0,0-3.3-2.8-5.5-1.9c-2.2,0.9-0.5,1.9-0.5,1.9H450.9z"/>
				<path fill="#613B23" d="M423.4,559.5c0,0,3.1-3,5.3-2.2c2.2,0.8,0.6,1.8,0.6,1.8L423.4,559.5z"/>
				<path fill="#F0B582" d="M436.9,574.6c0,0,4.4,4,3.3,7.2C439,585.1,433.4,583,436.9,574.6z"/>
				<path fill="#613B23" d="M433.7,592.7c-8,0-9.2-6-9.2-6c-0.1-0.4,0.2-0.8,0.6-0.9c0.4-0.1,0.8,0.2,0.9,0.6c0,0.2,1,4.7,7.6,4.7
					c6.6,0,7.2-3.4,7.2-3.5c0.1-0.4,0.5-0.7,0.9-0.7c0.4,0.1,0.7,0.4,0.7,0.9C442.4,587.9,441.8,592.7,433.7,592.7z"/>
				<path fill="#F2C5A5" d="M509.5,575.3c0,0,4.1-8.3,12.8-7.4c8.7,0.8,2.5,14.5-2.5,14.9C514.9,583.1,507.4,581.5,509.5,575.3z"/>
				<path fill="#F4D8AD" d="M380.7,637.2c0,0,5.8-7,12.4-6.2c6.6,0.8,26,36.3,26,36.3s2.9-1.7,7.4-0.4c4.5,1.2,1.2,3.7,1.2,3.7
					s2.1,5.4,1.2,8.7c-0.8,3.3-12.4,9.5-15.3,2.5c-2.9-7-1.2-9.5-1.2-9.5S379.4,648.4,380.7,637.2z"/>
				<path fill="#F05343" d="M455.4,615.3c0,0,3.7,11.1,3.7,17.3c0,6.2-5.8,7.4-5.8,7.4l-2.9-12L455.4,615.3z"/>
			</g>
			<path fill="#F4D8AD" d="M663.6,653.9l-38.8,28.9c0,0-2.8,7.1-7,9.9c-4.2,2.8-13.3-4.2-12.5-8.6c0.9-4.5,10.5-6.2,10.5-6.2
				s32.9-31.1,41.6-35.8C666,637.4,663.6,653.9,663.6,653.9z"/>
			<path fill="#3EBFBD" d="M689.8,632c0,0-27.4,5.5-37.3,11c-9.8,5.5-1.2,18,3.5,18c4.7,0,31.8-7.5,39.2-16.1S700,631.6,689.8,632z"
				/>
			<path fill="#4E2F18" d="M726.8,802.5l-5.2,1.9c0,0-1.1,3.3,3.6,4.1c4.7,0.8,12.3,0,12.3,0s5.8,1.6,12.5,0.3
				c6.8-1.3,7.1-3.1,7.1-3.1v-3.1H726.8z"/>
			<path fill="#3EBFBD" d="M728,790.4c0,0-2-2.3-4.4-1.8c-2.3,0.6-0.3,4.7-0.3,4.7s-2.6,6.4-1.8,11.1c0,0,7.3,2.9,14.9,0.9
				c0,0,12.9,2.3,20.2-1.8c0,0,2.3-4.1,2-5.3c-0.3-1.2-11.1,1.2-14.9-0.9c-3.8-2-5.5-5.3-5.5-6.1C738.2,790.4,728,790.4,728,790.4z"
				/>
			<path fill="#5D3D5D" d="M726,787.8l-0.1,4.7c0,0,4.8,1.4,9.2-0.5l2.1-7.7L726,787.8z"/>
			<path fill="#4E2F18" d="M652.2,745.8c0,0,63.1,5.9,67.1,7.5c3.9,1.6,2.7,28.2,2.7,34.1c0,5.9,14.1,1.6,20-2.7
				c5.9-4.3,6.3-50.6,0-56.1s-56.9-9.4-56.9-9.4S670.6,722.2,652.2,745.8z"/>
			<path fill="#613B23" d="M561.6,756.7c0,0-2.4-2-5.9,0c-3.5,2-2.4,7.5-2.4,7.5s-4.7,10.6-0.8,18s12.5,9.4,16.9,9.4
				s5.7-2.9,5.7-2.9l-8.4-5.3L561.6,756.7z"/>
			<path fill="#3EBFBD" d="M572.2,767.7c0,0-4.3,9-2.7,12.9c1.6,3.9,5.5,4.3,5.5,4.3s2,5.1-2.3,5.1s-16.1-2.4-17.3-11.4
				c-1.2-9,0.8-12.2,1.6-13.3c0,0-2.4-9,3.1-9.4c5.5-0.4,10.2-0.4,12.2,1.6S572.2,767.7,572.2,767.7z"/>
			<path fill="#613B23" d="M699.2,716.7c0,0-15.7,29-38,37.6c-22.4,8.6-43.1,15.3-43.1,15.3s-37.6,1.2-44.3,0.4s-9-9-3.9-11.4
				c5.1-2.4,46.3-9,46.3-9s24.3-32.5,29.4-36.9S699.2,716.7,699.2,716.7z"/>
			<path fill="#FFFFFF" d="M665.6,717.8c0,0-4.7,6.5-13.4,14.3c-8.7,7.8-21.2,16.8-36.8,21.9c-18.4,6-33.5,7.2-42.7,7.2
				c-2.1,0-3.9-0.1-5.3-0.2c-0.2,0.5-0.3,1-0.4,1.6c1.5,0.1,3.4,0.2,5.7,0.2c9.3,0,24.5-1.2,43.2-7.3c29.2-9.5,47.8-32.6,50.6-36.3
				l9.3,3.7c-2.2,2.2-8.6,8.3-17.2,15c-10.7,8.4-24.9,17.8-38.5,21.6c-18.2,5.2-38.7,6.1-50.3,6.1c-0.8,0-1.5,0-2.3,0
				c0.2,0.6,0.5,1.1,0.9,1.6c0.4,0,0.9,0,1.3,0c11.7,0,32.3-0.9,50.8-6.1c27.8-8,57.1-37.8,57.2-37.8l0.8-0.8l-12.6-5L665.6,717.8z"
				/>
			<path fill="#3EBFBD" d="M691.4,630.5c0,0-43.1,65.1-49.8,73.7c-6.7,8.6-1.6,10.2-1.6,10.2s15.3,13.3,38.8,12.9s26.3-6.3,26.3-6.3
				s1.2-2-0.8-6.3s12.5-62.3,12.5-68.2c0-5.9-6.5-17.6-6.5-17.6L691.4,630.5z"/>
			<path fill="#F1C193" d="M712.9,629.9l-9.4,9.4c0,0-5.2,0-6.3-2.6c-1-2.6,1-10.5,1-10.5L712.9,629.9z"/>
			<path fill="#613B23" d="M739.1,582.4c0,0,12-21.4-13.6-28.8c-25.6-7.3-58.6,1-59.1,30.3c-0.5,29.3,30.9,50.3,30.9,50.3l13-5.3
				L739.1,582.4z"/>
			<path fill="#F4D8AD" d="M740.1,571.6c0,0-21.2,17.8-34,17.8c0,0-14.4-6.8-17.8,0.8c-3.4,7.6,5.9,14.4,10.2,13.6
				c0,0,3.4,20.4,4.2,23.8c0.8,3.4,25.5,12.7,35.7-3.4C748.6,608.2,740.1,571.6,740.1,571.6z"/>
			<path fill="#613B23" d="M667.5,577.7c0,0-4.7,8.9,0,34c4.7,25.1,11.5,30.8,11.5,30.8l20.4-9.9L667.5,577.7z"/>
			<ellipse fill="#613B23" cx="735.7" cy="598.4" rx="1.3" ry="2.6"/>
			<path fill="#613B23" d="M733.4,591.3c-0.3,0-0.5-0.1-0.7-0.4c-0.2-0.4-0.1-0.9,0.3-1.1c3-1.7,5,0,5.1,0.1
				c0.3,0.3,0.4,0.8,0.1,1.1c-0.3,0.3-0.8,0.4-1.1,0.1c-0.1-0.1-1.3-1.1-3.3,0.1C733.6,591.2,733.5,591.3,733.4,591.3z"/>
			<path fill="#613B23" d="M740.7,619.7c-0.2,0.1-0.4,0.2-0.6,0.3c-1.4,0.6-3.2,1.2-5.1,1.2c-1.9,0-3.7-0.6-5.2-2.4
				c-0.3-0.3-0.8-0.4-1.1-0.1c-0.3,0.3-0.4,0.8-0.1,1.1c1.8,2.2,4.1,2.9,6.3,2.9h0.1c1.8,0,3.4-0.4,4.8-1
				C740.1,621,740.4,620.4,740.7,619.7z"/>
			<path fill="#F4D8AD" d="M743.4,659.5l45.8-15.4c0,0,3.1-4.4,7.9-5.7c4.8-1.3,13.2,6.6,11,10.6c-2.2,4-11.9,2.6-11.9,2.6
				s-41,19.4-50.6,21.1C735.9,674.5,743.4,659.5,743.4,659.5z"/>
			<path fill="#3EBFBD" d="M758.8,654.4c0,0-9,15.3-12.5,19.6s-43.9-5.5-48.6-11.8c-4.7-6.3-3.5-18.4,11.8-18.8
				C724.7,643,758.8,654.4,758.8,654.4z"/>
			<g>
				<path fill="#F4D8AD" d="M942.2,611.9l40.6-22.5c0,0,6-10.6,16.6-4.6c10.6,6-0.8,12.3-2.8,12.1l-6.4,3.7c0,0-36.6,24.9-39.3,25
					C948.2,625.8,941.1,618.8,942.2,611.9z"/>
				<path fill="#613B23" d="M959.4,579.8c0,0,4.7-10.7-1.2-22.4c-6-11.7-24.6-21.6-42.5-16.4c-17.9,5.2-28.1,38.5-21.1,54.5
					c7,15.9,5,24.1-2.2,30.8c-7.2,6.7,6.7,17.2,6.7,17.2s9.2-15.7,21.6-16.7c0,0,3-16.4,5-19.4S959.4,579.8,959.4,579.8z"/>
				<path fill="#F4D8AD" d="M1010.1,723.2c0,0,11.3,5.9,13.3,5.5c2-0.4,6.2-6.8,6.2-6.8l-14.2-9.8L1010.1,723.2z"/>
				<path fill="#8A513D" d="M934.2,734.7c0,0,38.8-13.8,45.9-14.2c7.1-0.4,24.6,12.7,27.6,12.7s13.4-15.3,11.9-19.8
					c-1.5-4.5-36.9-25.4-48.9-26.9c-11.9-1.5-42.1,13.1-42.1,13.1S920.7,717.5,934.2,734.7z"/>
				<path fill="#F4D8AD" d="M968.8,787.7c0,0,7.7,10.2,9.7,10.7c2,0.5,8.5-3.5,8.5-3.5l-8.7-14.9L968.8,787.7z"/>
				<path fill="#6F402E" d="M899.8,705.6c0,0,0.7,16.8,5.2,27.6c4.5,10.8,53,57.1,57.8,58.6s20.5-6.7,21.6-10.8
					c1.1-4.1-51.1-70.9-52.6-75.7C930.4,700.4,899.8,705.6,899.8,705.6z"/>
				<path fill="#04857C" d="M945.7,611.6c0,0,10.4,7,6.2,15.2c0.7,3-10.2,8.2-10.2,8.2s5,18.4,3,23.9c-2,5.5-6.5,8-7.5,12.9
					c-1,5,1.5,21.4,2,25.4c0.5,4-19.4,27.8-43.3,8c0,0-3.5-28.3-0.5-53.2C898.5,627,906.9,612.1,945.7,611.6z"/>
				<path fill="#F2B77C" d="M921.1,611.1l-1,9.2c0,0,2.2,3.7,8,3c0,0,4-6.2,4-7S921.1,611.1,921.1,611.1z"/>
				<path fill="#F4D8AD" d="M957.9,566.4c0,0-33.8-5-42.8-7.2l-3.2,24.4c0,0-3.8-4.9-7.4-3.4c-7.6,3.4-6,18.5,1.4,17.4l5.2-0.7
					c0,0,3.9,17.3,13.2,19.8c9.2,2.5,22.3,4.5,29.9-15.6C961.7,581.1,957.9,566.4,957.9,566.4z"/>
				<ellipse fill="#613B23" cx="932.3" cy="587.8" rx="1.4" ry="2.7"/>
				<ellipse fill="#613B23" cx="949.2" cy="587.8" rx="1.4" ry="2.7"/>
				<path fill="#613B23" d="M935.8,611.4c-0.1,0-0.2,0-0.3,0c-0.7-0.1-1.1-0.7-1.4-1.7c-0.2-0.9-0.2-1.9,0-3c0.5-2.4,1.8-4,3.1-3.8
					c1.3,0.3,1.9,2.3,1.4,4.7C938.2,609.8,937,611.4,935.8,611.4z M937,603.7c-0.7,0-1.7,1.2-2.1,3.2c-0.2,1-0.2,1.9,0,2.7
					c0.2,0.6,0.5,1.1,0.8,1.1c0.7,0.2,1.8-1.1,2.2-3.2c0.4-2.1-0.1-3.7-0.8-3.8C937.1,603.7,937.1,603.7,937,603.7z"/>
				<path fill="#613B23" d="M929.2,580c-0.2,0-0.4,0-0.7,0c-3.7-0.3-5.2-2.1-5.2-2.1c-0.3-0.3-0.2-0.8,0.1-1c0.3-0.3,0.8-0.2,1,0.1
					c0.1,0.1,1.2,1.4,4.2,1.6c1.1,0.1,1.9-0.1,2.3-0.5c0.3-0.3,0.4-0.7,0.4-0.7c0-0.4,0.3-0.7,0.7-0.7c0,0,0,0,0,0
					c0.4,0,0.7,0.3,0.7,0.8c0,0.1,0,1-0.8,1.7C931.3,579.7,930.4,580,929.2,580z"/>
				<path fill="#613B23" d="M951.2,579.6c-0.1,0-0.3,0-0.4-0.1c0,0-2.3-1.6-3.6-2c-0.5-0.2-2.1,0.8-3.1,1.8c-0.3,0.3-0.8,0.3-1.1,0
					c-0.3-0.3-0.3-0.8,0-1.1c0.5-0.5,2.9-2.8,4.6-2.2c1.4,0.5,3.8,2.1,3.9,2.2c0.3,0.2,0.4,0.7,0.2,1
					C951.7,579.4,951.4,579.6,951.2,579.6z"/>
				<path fill="#613B23" d="M907.9,580.1c0,0,6.2,2.2,4.5,7.7c-1.7,5.5-3.5,9.9-0.2,12.7c0,0-1.5-8.7,4.5-14.4
					c6-5.7,0.7-15.2,0.7-15.2s6,0.7,16.9,0.2s17.2-4.7,17.2-4.7s-4.5,4.5-11.9,6c0,0,17.7,2.5,19.4-3c1.7-5.5-4.5-13.2-6-13.7
					c-1.5-0.5-37.8-5-38.8-5.2c-1-0.2-8.7,19.6-8.7,19.6L907.9,580.1z"/>
				<path fill="#F4D8AD" d="M903.4,678.3l31.8,33.8c0,0,2.5,11.9,14.4,9.4c11.9-2.5,3-11.9,1-12.4c0,0,4-4.5-0.5-5s-4.5-0.5-4.5-0.5
					s-27.3-34.8-29.8-35.8C913.4,666.8,904.4,671.3,903.4,678.3z"/>
				<path fill="#6F402E" d="M980.8,807.2l-0.2,1.1c0,0,0,1.6,0.6,2.1c0.6,0.5,5-0.6,14.4-4.7c12.8-5,20.9-19.9,20.9-20.5
					c0-0.6-1.9-1.9-3.2-1.9S980.8,807.2,980.8,807.2z"/>
				<path fill="#4E2F18" d="M972.2,796.1c0,0,1.6-2.1,5-2.6c3.4-0.5,7.5-1.4,8.6-2.9c1.1-1.5,0.7-3.5,2.4-3.9
					c1.6-0.4,0.9,3.1,1.7,4.2c0.9,1.1,9.8-0.1,14.3-3.5c4.5-3.4,5.1-4.4,5.1-4.4s3-0.7,4.2,0.1c1.2,0.9-5.7,11.1-15.8,17.2
					s-15,7.2-17.2,7.8S973.2,801.2,972.2,796.1z"/>
				<path fill="#6F402E" d="M1030.6,735.2l0.3,1.1c0,0,0.8,1.4,1.5,1.6c0.8,0.1,4.1-2.9,10.5-11c9-10.4,9.1-27.4,8.8-27.9
					c-0.3-0.5-2.5-0.8-3.7-0.1C1046.7,699.5,1030.6,735.2,1030.6,735.2z"/>
				<path fill="#4E2F18" d="M1017.8,729.5c0,0,0.4-2.6,3.2-4.6c2.7-2,5.9-4.7,6.2-6.6c0.3-1.8-1-3.4,0.3-4.5
					c1.3-1.1,2.2,2.3,3.5,2.9c1.3,0.6,8.6-4.7,11-9.8c2.4-5.1,2.4-6.2,2.4-6.2s2.3-2.1,3.8-1.9c1.5,0.2,0.2,12.5-5.8,22.6
					c-6,10.1-9.9,13.4-11.4,15C1029.3,737.8,1021.1,733.5,1017.8,729.5z"/>
			</g>
			<polygon fill="#04857C" points="585.9,469.4 576.5,462.1 572.3,471.5 			"/>
			<polygon fill="#04857C" points="598.4,663.9 572.3,657.7 579.6,665 			"/>
			<polygon fill="#04857C" points="814.9,561.5 824.3,556.2 825.3,565.6 			"/>
			<polygon fill="#04857C" points="750.1,453.7 759.5,446.4 759.5,456.9 			"/>
			<polygon fill="#D21D53" points="748,370.1 736.5,370.1 740.6,380.6 			"/>
			<polygon fill="#D21D53" points="589,612.7 574.4,608.5 575.4,615.8 			"/>
			<polygon fill="#D21D53" points="521.1,492.4 504.3,479.9 507.5,491.4 			"/>
			<polygon fill="#D21D53" points="798.2,473.6 810.7,473.6 804.4,479.9 			"/>
			<polygon fill="#D21D53" points="869.3,634.7 859.9,634.7 864,647.2 			"/>
			<polygon fill="#D21D53" points="583.8,378.5 569.2,364.9 569.2,379.5 			"/>
			<polygon fill="#D21D53" points="351.7,614.8 338.1,619 348.5,625.2 			"/>
			<polygon fill="#D21D53" points="448.9,410.9 437.4,401.5 436.4,413 			"/>
			<polygon fill="#D21D53" points="845.2,424.5 860.9,419.2 854.6,431.8 			"/>
			<polygon fill="#D21D53" points="833.7,720.4 818,730.9 824.3,738.2 			"/>
			<polygon fill="#D21D53" points="596.3,258.2 608.9,274.9 596.3,271.8 596.3,254 			"/>
			<polygon fill="#F05343" points="505.4,633.6 502.2,639.9 508.5,647.2 			"/>
			<polygon fill="#F05343" points="790.8,354.4 802.3,349.2 798.2,361.7 			"/>
			<polygon fill="#F05343" points="537.8,347.1 544.1,358.6 529.4,355.5 			"/>
			<polygon fill="#F05343" points="876.6,464.2 890.2,464.2 883.9,473.6 			"/>
			<polygon fill="#F05343" points="542,437 530.5,427.6 530.5,439.1 			"/>
		</g>
	</g>
</g>
</svg>
